<svg width="450" height="563" viewBox="0 0 450 563" fill="none" xmlns="http://www.w3.org/2000/svg">
<rect width="450" height="563" fill="url(#paint0_linear)"/>
<g clip-path="url(#clip0)">
<g opacity="0.5">
<path opacity="0.5" d="M377.015 284.478H330.315V266.594C330.315 261.626 328.344 256.862 324.834 253.349C321.324 249.836 316.563 247.862 311.599 247.862H97.7781C93.2748 247.862 88.9559 249.653 85.7716 252.84C82.5873 256.027 80.7984 260.349 80.7984 264.856V284.489H73.7675C68.5297 284.487 63.5055 286.566 59.7989 290.27C56.0923 293.974 54.0065 298.999 54 304.241V392.904C54.0038 397.89 55.8894 402.69 59.2792 406.344C62.6689 409.997 67.3127 412.234 72.2804 412.607V432.662H92.2412V412.667H117.377V432.831H137.338V412.667H316.978V432.831H336.939V412.667H353.574V432.644H373.556V412.667H377.152C379.496 412.667 381.816 412.206 383.982 411.308C386.147 410.411 388.115 409.096 389.772 407.437C391.43 405.779 392.744 403.81 393.641 401.643C394.538 399.476 395 397.153 395 394.807V302.482C395 300.118 394.536 297.777 393.632 295.592C392.728 293.408 391.404 291.423 389.734 289.752C388.063 288.08 386.081 286.754 383.898 285.849C381.716 284.944 379.377 284.478 377.015 284.478ZM326.8 362.723V377.705H252.385C253.191 376.261 253.613 374.634 253.612 372.979V362.723H326.8Z" fill="url(#paint1_linear)"/>
</g>
<path d="M97.1664 405.173H77.9473V429.217H97.1664V405.173Z" fill="#5661B3"/>
<path d="M332.79 405.352H313.571V429.397H332.79V405.352Z" fill="#5661B3"/>
<path d="M368.026 405.173H348.807V429.217H368.026V405.173Z" fill="#5661B3"/>
<path d="M140.589 405.352H121.37V429.397H140.589V405.352Z" fill="#5661B3"/>
<path opacity="0.3" d="M97.1664 405.173H77.9473V429.217H97.1664V405.173Z" fill="black"/>
<path opacity="0.3" d="M332.79 405.352H313.571V429.397H332.79V405.352Z" fill="black"/>
<path opacity="0.3" d="M368.026 405.173H348.807V429.217H368.026V405.173Z" fill="black"/>
<path opacity="0.3" d="M140.589 405.352H121.37V429.397H140.589V405.352Z" fill="black"/>
<path d="M323.003 286.551H371.355C375.948 286.551 380.352 288.377 383.6 291.627C386.848 294.877 388.672 299.285 388.672 303.882V392.788C388.672 397.348 386.862 401.722 383.64 404.946C380.418 408.171 376.049 409.982 371.492 409.982H323.003V286.551Z" fill="#5661B3"/>
<path opacity="0.3" d="M323.003 286.551H371.355C375.948 286.551 380.352 288.377 383.6 291.627C386.848 294.877 388.672 299.285 388.672 303.882V392.788C388.672 397.348 386.862 401.722 383.64 404.946C380.418 408.171 376.049 409.982 371.492 409.982H323.003V286.551Z" fill="black"/>
<path d="M102.482 251.286H195.047V361.893H86.1313V267.646C86.1323 263.307 87.8553 259.146 90.9215 256.077C93.9877 253.009 98.146 251.286 102.482 251.286Z" fill="#5661B3"/>
<path opacity="0.3" d="M103.009 251.286H195.047V361.893H86.1313V268.174C86.1313 265.956 86.5679 263.76 87.4162 261.71C88.2644 259.661 89.5076 257.799 91.0749 256.231C92.6422 254.663 94.5028 253.419 96.5505 252.57C98.5982 251.722 100.793 251.285 103.009 251.286Z" fill="black"/>
<path d="M127.544 251.286H217.293V361.893H108.377V270.465C108.377 265.378 110.396 260.5 113.99 256.903C117.584 253.306 122.458 251.286 127.54 251.286H127.544Z" fill="#5661B3"/>
<path d="M216.766 251.286H308.361C313.142 251.286 317.726 253.186 321.106 256.569C324.486 259.952 326.385 264.54 326.385 269.325V361.893H216.766V251.286Z" fill="#5661B3"/>
<path d="M353.437 286.551H371.366C375.956 286.553 380.358 288.381 383.604 291.631C386.849 294.881 388.672 299.287 388.672 303.882V392.788C388.672 397.348 386.862 401.722 383.64 404.946C380.418 408.171 376.048 409.982 371.492 409.982H353.437V286.551Z" fill="#5661B3"/>
<path d="M353.433 376.318H132.402V409.982H353.433V376.318Z" fill="#5661B3"/>
<path d="M183.19 290.89L159.039 297.935C148.405 301.038 142.297 312.18 145.396 322.823L153.397 350.295C156.496 360.937 167.63 367.05 178.264 363.948L202.415 356.903C213.049 353.801 219.157 342.658 216.057 332.015L208.057 304.544C204.957 293.901 193.824 287.788 183.19 290.89Z" fill="url(#paint2_linear)"/>
<path d="M181.86 294.172L159.338 300.741C149.422 303.634 143.726 314.025 146.616 323.949L154.077 349.567C156.967 359.491 167.349 365.192 177.266 362.299L199.787 355.729C209.703 352.836 215.399 342.446 212.509 332.521L205.048 306.904C202.158 296.979 191.776 291.279 181.86 294.172Z" fill="#F55F44"/>
<path opacity="0.1" d="M181.86 294.172L159.338 300.741C149.422 303.634 143.726 314.025 146.616 323.949L154.077 349.567C156.967 359.491 167.349 365.192 177.266 362.299L199.787 355.729C209.703 352.836 215.399 342.446 212.509 332.521L205.048 306.904C202.158 296.979 191.776 291.279 181.86 294.172Z" fill="black"/>
<path d="M183.022 293.354L160.5 299.924C150.584 302.817 144.888 313.207 147.779 323.132L155.239 348.749C158.129 358.674 168.511 364.374 178.428 361.481L200.949 354.912C210.866 352.019 216.561 341.628 213.671 331.704L206.21 306.086C203.32 296.162 192.938 290.461 183.022 293.354Z" fill="#F55F44"/>
<path d="M178.205 315.471C180.376 313.943 180.898 310.942 179.371 308.77C177.844 306.597 174.846 306.075 172.675 307.603C170.505 309.131 169.982 312.131 171.509 314.304C173.036 316.476 176.034 316.999 178.205 315.471Z" fill="url(#paint3_linear)"/>
<path d="M201.196 328.682C203.367 327.153 203.889 324.153 202.363 321.981C200.836 319.808 197.838 319.285 195.667 320.813C193.496 322.342 192.974 325.342 194.501 327.514C196.028 329.687 199.026 330.21 201.196 328.682Z" fill="url(#paint4_linear)"/>
<path d="M165.534 342.022C167.705 340.494 168.227 337.494 166.701 335.321C165.174 333.148 162.176 332.626 160.005 334.154C157.834 335.682 157.312 338.682 158.839 340.855C160.366 343.027 163.363 343.55 165.534 342.022Z" fill="url(#paint5_linear)"/>
<path d="M187.214 356.158C189.384 354.629 189.907 351.629 188.38 349.457C186.853 347.284 183.855 346.761 181.684 348.29C179.513 349.818 178.991 352.818 180.518 354.991C182.045 357.163 185.043 357.686 187.214 356.158Z" fill="url(#paint6_linear)"/>
<path d="M177.282 314.158C178.729 313.14 179.077 311.141 178.06 309.693C177.042 308.245 175.044 307.897 173.598 308.915C172.151 309.933 171.803 311.933 172.821 313.381C173.838 314.829 175.836 315.177 177.282 314.158Z" fill="#F99F8F"/>
<path d="M200.274 327.369C201.721 326.351 202.069 324.352 201.051 322.904C200.034 321.456 198.036 321.107 196.589 322.126C195.143 323.144 194.795 325.144 195.812 326.592C196.83 328.039 198.828 328.388 200.274 327.369Z" fill="#F99F8F"/>
<path d="M164.612 340.71C166.059 339.691 166.407 337.692 165.389 336.244C164.372 334.796 162.374 334.448 160.927 335.466C159.481 336.484 159.133 338.484 160.15 339.932C161.168 341.38 163.165 341.728 164.612 340.71Z" fill="#F99F8F"/>
<path d="M186.291 354.845C187.738 353.827 188.086 351.828 187.068 350.38C186.051 348.932 184.053 348.583 182.607 349.602C181.16 350.62 180.812 352.62 181.829 354.068C182.847 355.515 184.845 355.864 186.291 354.845Z" fill="#F99F8F"/>
<path d="M79.357 286.551H150.018V409.982H79.357C74.3108 409.982 69.4712 407.976 65.9026 404.405C62.334 400.835 60.3288 395.991 60.3278 390.941V305.596C60.3278 300.544 62.3327 295.7 65.9014 292.129C69.47 288.557 74.3102 286.551 79.357 286.551Z" fill="#5661B3"/>
<path opacity="0.3" d="M79.4906 286.551H132.289C134.619 286.551 136.926 287.01 139.078 287.903C141.231 288.796 143.186 290.104 144.833 291.753C146.48 293.403 147.785 295.361 148.676 297.516C149.566 299.67 150.023 301.98 150.021 304.311V392.236C150.021 396.942 148.153 401.456 144.828 404.784C141.502 408.113 136.992 409.982 132.289 409.982H79.4906C74.4083 409.982 69.5342 407.962 65.9405 404.365C62.3468 400.768 60.3278 395.89 60.3278 390.804V305.719C60.3306 300.634 62.3508 295.759 65.9442 292.164C69.5376 288.57 74.4102 286.551 79.4906 286.551Z" fill="black"/>
<path opacity="0.1" d="M114.962 286.551H145.824C147.409 286.551 148.929 287.181 150.05 288.302C151.171 289.424 151.8 290.945 151.8 292.532V404.001C151.8 405.587 151.171 407.109 150.05 408.23C148.929 409.352 147.409 409.982 145.824 409.982H114.962V286.551Z" fill="black"/>
<path d="M113.183 286.551H144.045C145.63 286.551 147.15 287.181 148.271 288.302C149.392 289.424 150.021 290.945 150.021 292.532V404.001C150.021 405.587 149.392 407.109 148.271 408.23C147.15 409.352 145.63 409.982 144.045 409.982H113.183V286.551Z" fill="#5661B3"/>
<path d="M252.529 350.673H142.013V381.132H252.529V350.673Z" fill="#5661B3"/>
<path d="M363.224 350.849H252.708V381.307H363.224V350.849Z" fill="#5661B3"/>
<path opacity="0.15" d="M243.178 350.673H151.364C146.2 350.673 142.013 354.863 142.013 360.032V371.773C142.013 376.941 146.2 381.132 151.364 381.132H243.178C248.342 381.132 252.529 376.941 252.529 371.773V360.032C252.529 354.863 248.342 350.673 243.178 350.673Z" fill="white"/>
<path d="M265.431 294.653C268.968 294.653 271.836 291.783 271.836 288.243C271.836 284.702 268.968 281.832 265.431 281.832C261.893 281.832 259.025 284.702 259.025 288.243C259.025 291.783 261.893 294.653 265.431 294.653Z" fill="#5661B3"/>
<path opacity="0.3" d="M265.431 294.653C268.968 294.653 271.836 291.783 271.836 288.243C271.836 284.702 268.968 281.832 265.431 281.832C261.893 281.832 259.025 284.702 259.025 288.243C259.025 291.783 261.893 294.653 265.431 294.653Z" fill="black"/>
<path d="M166.129 294.653C169.667 294.653 172.534 291.783 172.534 288.243C172.534 284.702 169.667 281.832 166.129 281.832C162.592 281.832 159.724 284.702 159.724 288.243C159.724 291.783 162.592 294.653 166.129 294.653Z" fill="#5661B3"/>
<path opacity="0.3" d="M166.129 294.653C169.667 294.653 172.534 291.783 172.534 288.243C172.534 284.702 169.667 281.832 166.129 281.832C162.592 281.832 159.724 284.702 159.724 288.243C159.724 291.783 162.592 294.653 166.129 294.653Z" fill="black"/>
<path d="M162.923 254.4C163.808 254.4 164.526 253.324 164.526 251.997C164.526 250.669 163.808 249.594 162.923 249.594C162.038 249.594 161.32 250.669 161.32 251.997C161.32 253.324 162.038 254.4 162.923 254.4Z" fill="#FDA57D"/>
<path opacity="0.15" d="M353.873 350.849H262.059C256.895 350.849 252.708 355.039 252.708 360.208V371.949C252.708 377.117 256.895 381.307 262.059 381.307H353.873C359.037 381.307 363.224 377.117 363.224 371.949V360.208C363.224 355.039 359.037 350.849 353.873 350.849Z" fill="white"/>
<g opacity="0.5">
<path opacity="0.5" d="M290.394 289.186C289.659 285.143 288.907 281.055 287.23 277.294C285.393 273.162 282.517 269.578 278.881 266.893C278.341 266.485 277.672 266.285 276.996 266.33C275.942 266.422 275.618 267.069 275.453 267.738C275.432 267.819 275.414 267.896 275.4 267.977C274.986 270.028 275.263 272.055 275.864 274.053C276.613 276.548 277.868 278.979 278.912 281.393C280.794 285.717 282.04 290.292 282.614 294.974C282.692 295.593 282.751 296.23 282.765 296.866C282.775 297.245 282.766 297.625 282.737 298.003C282.69 298.744 282.521 299.473 282.238 300.16C282.189 300.272 282.136 300.389 282.08 300.511C282.024 300.633 281.963 300.741 281.897 300.835C281.257 301.891 280.259 302.644 279.282 303.386C278.304 304.128 277.197 304.92 276.03 305.321H276.068C275.525 305.517 274.951 305.611 274.374 305.599C272.57 305.543 270.648 304.09 268.834 304.431L268.63 304.477C266.773 304.98 265.35 307.9 265.336 309.754C265.336 309.902 265.336 310.045 265.336 310.183C265.336 310.233 265.336 310.282 265.353 310.331C265.371 310.381 265.374 310.518 265.388 310.606C265.402 310.694 265.409 310.715 265.424 310.768C265.438 310.82 265.455 310.926 265.476 311.003C265.497 311.081 265.508 311.112 265.525 311.165C265.543 311.218 265.571 311.309 265.596 311.38C265.62 311.45 265.638 311.485 265.659 311.535C265.68 311.584 265.715 311.668 265.747 311.732L265.824 311.879C265.859 311.939 265.891 312.002 265.93 312.062L266.021 312.203L266.141 312.372L266.243 312.502L266.38 312.657L266.492 312.777L266.643 312.921L266.766 313.03L266.932 313.164L267.062 313.266L267.241 313.389L267.375 313.48L267.571 313.596L267.709 313.674L267.93 313.783L268.06 313.846C268.166 313.895 268.275 313.941 268.384 313.983L268.542 314.043L268.795 314.135L268.978 314.191L269.185 314.254L269.389 314.307L269.586 314.356L269.804 314.402L269.994 314.441L270.222 314.479L270.405 314.508L270.64 314.539L270.816 314.56L271.062 314.581H271.235H271.488H271.649H271.913H272.465H272.753H272.855L273.165 314.557H273.224C274.102 314.48 274.966 314.29 275.794 313.99C278.42 312.995 280.649 311.176 282.713 309.265C286.805 305.483 290.672 300.789 290.999 295.223C291.125 293.214 290.756 291.188 290.394 289.186Z" fill="url(#paint7_linear)"/>
</g>
<path opacity="0.1" d="M273.087 287.849H239.947V297.45H273.087V287.849Z" fill="black"/>
<path d="M273.087 287.849H239.947V296.578H273.087V287.849Z" fill="#5661B3"/>
<path d="M259.134 289.013C262.023 289.013 264.365 286.669 264.365 283.778C264.365 280.887 262.023 278.543 259.134 278.543C256.245 278.543 253.903 280.887 253.903 283.778C253.903 286.669 256.245 289.013 259.134 289.013Z" fill="#5661B3"/>
<path d="M249.27 291.835L249.207 291.772C249.325 291.682 249.422 291.566 249.488 291.432C249.554 291.299 249.589 291.152 249.589 291.003C249.589 290.854 249.554 290.707 249.488 290.574C249.422 290.44 249.325 290.324 249.207 290.234L249.263 290.164C249.39 290.263 249.493 290.389 249.563 290.534C249.634 290.678 249.671 290.837 249.671 290.998C249.671 291.159 249.634 291.318 249.563 291.462C249.493 291.607 249.39 291.733 249.263 291.832L249.27 291.835Z" fill="#4D8AF0"/>
<path opacity="0.1" d="M249.27 291.835L249.207 291.772C249.325 291.682 249.422 291.566 249.488 291.432C249.554 291.299 249.589 291.152 249.589 291.003C249.589 290.854 249.554 290.707 249.488 290.574C249.422 290.44 249.325 290.324 249.207 290.234L249.263 290.164C249.39 290.263 249.493 290.389 249.563 290.534C249.634 290.678 249.671 290.837 249.671 290.998C249.671 291.159 249.634 291.318 249.563 291.462C249.493 291.607 249.39 291.733 249.263 291.832L249.27 291.835Z" fill="black"/>
<path d="M249.207 291.835C249.08 291.736 248.977 291.61 248.906 291.466C248.835 291.321 248.799 291.162 248.799 291.001C248.799 290.84 248.835 290.682 248.906 290.537C248.977 290.393 249.08 290.266 249.207 290.167L249.263 290.238C249.144 290.328 249.048 290.444 248.982 290.577C248.915 290.711 248.881 290.858 248.881 291.007C248.881 291.156 248.915 291.302 248.982 291.436C249.048 291.569 249.144 291.685 249.263 291.775L249.207 291.835Z" fill="#4D8AF0"/>
<path d="M276.005 320.003C278.406 319.092 280.442 317.428 282.333 315.683C286.073 312.228 289.603 307.942 289.905 302.851C290.014 300.993 289.68 299.143 289.346 297.31C288.675 293.615 287.989 289.879 286.467 286.445C284.789 282.671 282.16 279.398 278.839 276.945C278.344 276.571 277.731 276.389 277.112 276.432C276.058 276.527 275.791 277.251 275.65 277.945C274.796 282.167 277.141 286.262 278.856 290.203C280.575 294.154 281.714 298.334 282.238 302.612C282.459 304.427 282.54 306.391 281.584 307.953C281.001 308.91 280.087 309.606 279.194 310.282C277.858 311.292 276.381 312.351 274.708 312.302C273.035 312.252 271.164 310.813 269.435 311.278C267.705 311.742 266.436 314.406 266.425 316.112C266.404 320.735 272.792 321.221 276.005 320.003Z" fill="#FFD180"/>
<g opacity="0.1">
<path opacity="0.1" d="M281.577 307.953C280.994 308.91 280.079 309.606 279.187 310.282C278.293 311.02 277.289 311.614 276.212 312.041C277.731 311.939 279.092 310.986 280.326 310.039C281.219 309.364 282.133 308.664 282.716 307.71C283.669 306.151 283.591 304.192 283.37 302.369C282.846 298.091 281.707 293.912 279.988 289.96C278.273 286.016 275.924 281.917 276.782 277.702C276.806 277.453 276.88 277.211 277.001 276.992C277.122 276.773 277.287 276.581 277.485 276.428C277.355 276.417 277.225 276.417 277.095 276.428C276.04 276.523 275.773 277.248 275.632 277.941C274.778 282.163 277.123 286.259 278.839 290.199C280.557 294.151 281.696 298.331 282.22 302.608C282.452 304.427 282.533 306.391 281.577 307.953Z" fill="black"/>
<path opacity="0.1" d="M267.571 315.88C267.571 314.304 268.693 311.908 270.201 311.19C269.944 311.183 269.687 311.213 269.438 311.278C267.74 311.739 266.44 314.406 266.429 316.112C266.408 320.425 271.959 321.129 275.316 320.225C271.98 320.71 267.55 319.722 267.571 315.88Z" fill="black"/>
</g>
<g opacity="0.5">
<path opacity="0.5" d="M243.086 267.787C243.086 267.787 252.662 265.869 257.45 267.787C257.45 267.787 260.323 261.077 263.195 261.077C266.067 261.077 267.023 271.633 267.023 271.633L270.851 286.966C270.851 286.966 289.044 319.549 270.851 336.796C252.659 354.044 223.938 334.868 223.938 322.41C223.938 309.951 229.682 284.081 229.682 284.081C229.682 284.081 235.426 262.998 237.342 261.081C239.258 259.163 243.086 267.787 243.086 267.787Z" fill="url(#paint8_linear)"/>
</g>
<path d="M243.41 269.12C243.41 269.12 252.613 267.277 257.215 269.12C257.215 269.12 259.975 262.671 262.738 262.671C265.501 262.671 266.418 272.804 266.418 272.804L270.099 287.543C270.099 287.543 287.589 318.856 270.099 335.445C252.61 352.035 224.996 333.602 224.996 321.629C224.996 309.656 230.518 284.781 230.518 284.781C230.518 284.781 236.041 264.515 237.883 262.671C239.725 260.828 243.41 269.12 243.41 269.12Z" fill="#FFD180"/>
<g opacity="0.1">
<path opacity="0.1" d="M276.529 304.762C275.117 298.774 272.953 292.99 270.089 287.546L270.669 289.875C273.162 294.607 275.128 299.599 276.529 304.762Z" fill="white"/>
<path opacity="0.1" d="M226.651 319.148C226.651 307.186 231.106 287.11 231.106 287.11C231.106 287.11 236.628 266.844 238.47 265C240.313 263.157 243.993 271.45 243.993 271.45C243.993 271.45 253.197 269.606 257.798 271.45C257.798 271.45 260.562 265 263.321 265C264.376 265 265.188 266.527 265.757 268.396C265.195 265.662 264.239 262.671 262.741 262.671C259.982 262.671 257.218 269.12 257.218 269.12C252.617 267.277 243.413 269.12 243.413 269.12C243.413 269.12 239.733 260.831 237.89 262.671C236.048 264.511 230.526 284.781 230.526 284.781C230.526 284.781 226.071 304.836 226.071 316.819C226.068 317.903 226.651 319.493 226.651 319.148Z" fill="white"/>
</g>
<path d="M261.36 287.085C262.377 287.085 263.202 286.26 263.202 285.242C263.202 284.223 262.377 283.398 261.36 283.398C260.342 283.398 259.518 284.223 259.518 285.242C259.518 286.26 260.342 287.085 261.36 287.085Z" fill="#58555D"/>
<path d="M240.19 287.085C241.207 287.085 242.032 286.26 242.032 285.242C242.032 284.223 241.207 283.398 240.19 283.398C239.172 283.398 238.347 284.223 238.347 285.242C238.347 286.26 239.172 287.085 240.19 287.085Z" fill="#58555D"/>
<path d="M251.235 288.929C252.759 288.929 253.995 288.104 253.995 287.085C253.995 286.067 252.759 285.242 251.235 285.242C249.711 285.242 248.475 286.067 248.475 287.085C248.475 288.104 249.711 288.929 251.235 288.929Z" fill="#58555D"/>
<path d="M275.067 282.934L266.783 284.776L266.982 285.676L275.267 283.834L275.067 282.934Z" fill="#FFD180"/>
<path d="M276 286.621L266.795 288.456L266.975 289.361L276.18 287.525L276 286.621Z" fill="#FFD180"/>
<path d="M224.709 280.205L224.367 281.061L233.572 284.746L233.914 283.89L224.709 280.205Z" fill="#FFD180"/>
<path d="M221.862 284.794L221.722 285.706L233.688 287.549L233.828 286.638L221.862 284.794Z" fill="#FFD180"/>
<path opacity="0.1" d="M248.94 298.872C246.53 298.874 244.125 298.669 241.75 298.26C237.185 297.473 232.793 295.893 228.771 293.591L229.091 292.103C233.158 294.307 237.548 295.851 242.098 296.676C248.725 297.813 260.122 297.472 271.706 291.075L272.479 292.483C264.07 297.134 255.218 298.872 248.94 298.872Z" fill="black"/>
<path d="M271.706 290.734C260.105 297.13 248.722 297.472 242.098 296.335C237.548 295.509 233.158 293.965 229.091 291.761L228.24 293.119C232.455 295.437 237.018 297.055 241.75 297.908C244.126 298.319 246.532 298.525 248.943 298.524C255.222 298.524 264.06 296.789 272.497 292.145L271.706 290.734ZM249.238 298.397C249.203 298.397 249.168 298.386 249.139 298.367C249.109 298.347 249.086 298.319 249.073 298.286C249.059 298.253 249.056 298.217 249.062 298.182C249.069 298.148 249.086 298.116 249.112 298.091C249.137 298.066 249.169 298.048 249.203 298.041C249.238 298.035 249.274 298.038 249.307 298.052C249.34 298.065 249.368 298.088 249.387 298.118C249.407 298.147 249.418 298.182 249.418 298.217C249.417 298.264 249.397 298.309 249.364 298.342C249.33 298.375 249.285 298.393 249.238 298.393V298.397Z" fill="#F55F44"/>
<path opacity="0.1" d="M247.456 300.888C247.456 301.36 247.643 301.813 247.977 302.147C248.311 302.481 248.763 302.668 249.235 302.668C249.707 302.668 250.159 302.481 250.493 302.147C250.826 301.813 251.014 301.36 251.014 300.888C251.014 300.416 250.826 299.963 250.493 299.629C250.159 299.295 249.707 299.108 249.235 299.108C248.763 299.108 248.311 299.295 247.977 299.629C247.643 299.963 247.456 300.416 247.456 300.888ZM249.235 299.998C249.176 299.998 249.119 299.98 249.071 299.948C249.022 299.915 248.984 299.869 248.962 299.815C248.94 299.761 248.934 299.702 248.945 299.645C248.957 299.587 248.985 299.535 249.026 299.493C249.067 299.452 249.12 299.424 249.177 299.412C249.234 299.401 249.294 299.407 249.348 299.429C249.402 299.452 249.448 299.489 249.48 299.538C249.513 299.587 249.53 299.644 249.53 299.702C249.53 299.78 249.499 299.855 249.445 299.91C249.39 299.965 249.316 299.997 249.238 299.998H249.235Z" fill="url(#paint9_linear)"/>
<path d="M247.635 300.888C247.635 301.313 247.804 301.721 248.105 302.022C248.405 302.323 248.813 302.492 249.238 302.492C249.663 302.492 250.071 302.323 250.372 302.022C250.672 301.721 250.841 301.313 250.841 300.888C250.841 300.462 250.672 300.054 250.372 299.753C250.071 299.453 249.663 299.284 249.238 299.284C248.813 299.284 248.405 299.453 248.105 299.753C247.804 300.054 247.635 300.462 247.635 300.888ZM249.238 300.086C249.185 300.086 249.134 300.07 249.09 300.041C249.046 300.011 249.012 299.969 248.991 299.921C248.971 299.872 248.966 299.818 248.976 299.766C248.987 299.714 249.012 299.667 249.049 299.629C249.087 299.592 249.134 299.566 249.186 299.556C249.238 299.546 249.292 299.551 249.341 299.571C249.389 299.591 249.431 299.626 249.46 299.67C249.49 299.714 249.505 299.765 249.505 299.818C249.505 299.889 249.477 299.957 249.427 300.007C249.377 300.058 249.309 300.086 249.238 300.086Z" fill="#4D8AF0"/>
<path d="M269.347 291.269C244.848 305.694 230.729 292.324 230.729 292.324L269.347 291.269Z" fill="#FFD180"/>
<path d="M336.555 362.139C335.054 357.879 318.978 369.88 318.978 369.88L315.262 369.658L308.112 363.03L313.104 358.033L271.185 322.058C270.066 321.099 268.759 320.384 267.348 319.96C265.937 319.536 264.453 319.412 262.991 319.595L228.142 323.944C227.991 321.945 226.76 319.571 225.02 317.146C221.445 311.278 213.918 304.653 211.141 302.299L206.88 273.631L210.491 268.209C209.823 268.026 209.165 267.806 208.522 267.548L209.285 266.401L209.004 266.323L209.355 265.908H209.313L218.306 255.494C218.974 254.721 219.316 253.719 219.261 252.699C219.206 251.678 218.758 250.719 218.01 250.023L197.884 234.718C198.495 233.26 198.787 231.689 198.742 230.109C198.9 227.069 197.54 223.983 192.98 221.7C190.159 220.354 187.204 219.309 184.164 218.583C179.154 217.292 173.89 217.37 168.921 218.808C168.84 218.706 168.752 218.604 168.66 218.498C162.466 211.412 154.342 221.594 154.025 222.016L122.274 257.362C121.41 258.734 121.095 260.381 121.389 261.976C121.683 263.57 122.567 264.995 123.863 265.968L140.67 278.581L140.618 278.691L141.567 279.394C140.864 280.802 139.883 281.752 138.6 281.896L141.173 283.183C140.766 283.468 140.295 283.646 139.802 283.701L151.586 289.597C151.586 295.727 152.219 323.786 162.174 337.56C163.194 339.255 164.408 340.826 165.792 342.239C165.792 342.239 166.639 341.779 168.186 341.033L169.965 344.597C171.92 348.51 175.055 351.708 178.927 353.738C182.799 355.768 187.212 356.528 191.539 355.908L246.855 347.999L246.268 349.758L246.584 349.713L228.655 403.544L231.615 404.532L231.559 404.638L231.977 404.817L228.247 411.854L216.509 420.889C216.509 420.889 250.817 438.055 254.427 435.346C258.038 432.637 241.771 420.889 241.771 420.889L240.868 417.276L244.816 408.934L248.124 410.039L274.708 356.827L275.611 355.018L293.604 377.536L298.676 372.462L299.225 373.018L299.27 372.973L306.301 380.094L311.395 394.009C311.395 394.009 338.049 366.4 336.555 362.139ZM196.991 258.664L196.64 258.256C194.496 260.94 190.702 264.188 186.473 266.387V263.428L186.674 263.252V261.964C189.347 259.502 191.28 256.341 192.255 252.838C193.23 249.335 193.209 245.629 192.193 242.138L203.871 251.113L196.991 258.664ZM157.355 225.299L157.073 225.018L157.358 225.299H157.355ZM148.021 244.115C147.944 245.054 147.912 245.998 147.926 246.948C147.906 248.327 147.982 249.706 148.155 251.075C148.756 255.856 150.468 259.765 153.994 261.63C157.066 263.248 159.088 263.16 160.374 262.056L160.515 262.182C160.623 264.052 161.109 265.881 161.942 267.558C155.36 266.183 149.074 263.649 143.377 260.075C143.377 260.075 143.398 260.314 143.423 260.743L138.593 255.909L148.021 244.115Z" fill="url(#paint10_linear)"/>
<path d="M236.161 394.477L228.269 409.398L240.545 414.662L248.437 397.988L236.161 394.477Z" fill="#FDA57D"/>
<path d="M240.545 414.662L241.42 418.18C241.42 418.18 257.204 429.59 253.696 432.222C250.187 434.854 216.864 418.18 216.864 418.18L228.265 409.402L240.545 414.662Z" fill="#333333"/>
<path opacity="0.1" d="M247.597 399.536L235.177 395.395L231.482 402.376L243.758 407.643L247.597 399.536Z" fill="black"/>
<path d="M292.239 366.527L304.094 378.539L312.794 368.395L299.267 355.859L292.239 366.527Z" fill="#FDA57D"/>
<path opacity="0.1" d="M299.756 356.443L292.728 367.114L297.221 371.664L306.336 362.54L299.756 356.443Z" fill="black"/>
<path d="M312.794 368.392L316.405 368.606C316.405 368.606 332.013 356.957 333.472 361.094C334.931 365.232 309.043 392.056 309.043 392.056L304.097 378.539L312.794 368.392Z" fill="#333333"/>
<path d="M200.402 278.581L218.619 257.471C219.268 256.72 219.6 255.746 219.546 254.755C219.493 253.763 219.057 252.831 218.33 252.155L178.69 222.087L173.877 229.602L204.599 253.27L191.557 267.583L200.402 278.581Z" fill="#FDA57D"/>
<path opacity="0.1" d="M198.31 260.198L191.936 267.192L200.792 278.205L209.932 267.629C205.473 266.216 201.465 263.653 198.31 260.198Z" fill="black"/>
<path d="M147.511 283.162L126.886 267.681C125.627 266.736 124.77 265.352 124.484 263.803C124.198 262.254 124.505 260.655 125.343 259.322L156.205 224.951L162.533 231.284L141.184 257.9L153.804 270.531L147.511 283.162Z" fill="#FDA57D"/>
<path opacity="0.1" d="M143.149 280.045L146.523 282.578L152.851 269.947L144.906 262.02C145.075 264.708 145.55 275.154 143.149 280.045Z" fill="black"/>
<path d="M247.593 344.47L228.659 401.317L247.593 407.632L279.144 344.47L253.903 338.155L247.593 344.47Z" fill="#4D8AF0"/>
<path opacity="0.1" d="M246.714 346.226L245.769 349.069L265.649 346.226L273.414 355.944L278.269 346.226L253.024 339.91L246.714 346.226Z" fill="black"/>
<path d="M156.163 224.989C156.163 224.989 164.248 214.554 170.39 221.577C176.532 228.599 160.744 229.475 160.744 229.475L156.163 224.989Z" fill="#FDA57D"/>
<path d="M165.553 331.839L171.652 344.051C173.551 347.852 176.596 350.959 180.358 352.931C184.119 354.903 188.404 355.641 192.608 355.039L266.524 344.484L291.768 376.065L310.699 357.119L269.973 322.181C268.886 321.249 267.617 320.554 266.246 320.142C264.875 319.729 263.434 319.608 262.014 319.785L165.553 331.839Z" fill="#4D8AF0"/>
<path opacity="0.1" d="M147.005 263.706C147.005 263.706 148.668 284.218 142.358 284.922L154.978 291.255C154.978 291.255 154.275 328.447 167.599 341.782C167.599 341.782 192.14 328.447 218.084 329.151C244.028 329.855 211.756 303.886 211.756 303.886L207.496 275.133L211.011 269.856C206.258 268.431 202.003 265.694 198.735 261.957C195.22 266.345 187.183 272.294 180.212 272.294H177.196C166.804 272.294 155.752 270.183 146.995 264.589L147.005 263.706Z" fill="black"/>
<path d="M145.834 261.95C145.834 261.95 147.511 282.462 141.184 283.162L153.804 289.495C153.804 289.495 153.101 326.688 166.425 340.023C166.425 340.023 190.966 326.688 216.91 327.392C242.854 328.096 210.582 302.126 210.582 302.126L206.322 273.374L209.837 268.097C205.084 266.672 200.829 263.934 197.561 260.198C194.046 264.585 186.009 270.535 179.038 270.535H176.022C165.63 270.535 154.577 267.555 145.82 261.95H145.834Z" fill="#3AD29F"/>
<path d="M162.459 256.166V263.203C162.46 266.776 163.878 270.203 166.403 272.73L181.393 287.733L186.382 277.744C187.251 276.005 187.703 274.087 187.704 272.143V256.166H162.459Z" fill="#FDA57D"/>
<path opacity="0.1" d="M162.652 264.29C162.652 264.55 162.652 264.807 162.677 265.067C166.149 268.166 170.639 269.877 175.291 269.873C179.943 269.869 184.43 268.151 187.897 265.046V257.239H162.652V264.29Z" fill="black"/>
<path d="M175.08 268.8C185.535 268.8 194.01 260.318 194.01 249.854C194.01 239.39 185.535 230.907 175.08 230.907C164.624 230.907 156.149 239.39 156.149 249.854C156.149 260.318 164.624 268.8 175.08 268.8Z" fill="#FDA57D"/>
<path opacity="0.1" d="M162.459 244.509H194.014C194.014 244.509 206.634 231.878 194.014 225.563C191.274 224.256 188.403 223.242 185.45 222.537C166.259 217.668 148.011 233.553 150.478 253.214C151.062 257.858 152.725 261.658 156.149 263.456C169.469 270.465 162.459 244.509 162.459 244.509Z" fill="black"/>
<path d="M162.459 243.633H194.014C194.014 243.633 206.634 231.002 194.014 224.687C191.274 223.38 188.403 222.366 185.45 221.661C166.259 216.792 148.011 232.677 150.478 252.338C151.062 256.982 152.725 260.782 156.149 262.58C169.469 269.599 162.459 243.633 162.459 243.633Z" fill="#333333"/>
<path d="M163.373 253.172C164.342 253.172 165.127 251.796 165.127 250.1C165.127 248.404 164.342 247.029 163.373 247.029C162.404 247.029 161.619 248.404 161.619 250.1C161.619 251.796 162.404 253.172 163.373 253.172Z" fill="#FDA57D"/>
<path opacity="0.1" d="M153.727 289.158L154.606 286.522L157.235 288.278L153.727 289.158Z" fill="black"/>
<path opacity="0.1" d="M210.632 302.13C210.632 302.13 201.084 306.704 198.45 311.102L210.632 302.13Z" fill="black"/>
<path opacity="0.1" d="M206.343 273.36L205.467 275.992L203.713 273.36H206.343Z" fill="black"/>
<path d="M162.459 243.633H194.014C194.014 243.633 206.634 231.002 194.014 224.687C191.274 223.38 188.403 222.366 185.45 221.661C166.259 216.792 148.011 232.677 150.478 252.338C151.062 256.982 152.725 260.782 156.149 262.58C169.469 269.599 162.459 243.633 162.459 243.633Z" fill="#333333"/>
<path opacity="0.1" d="M247.35 314.571C247.35 314.571 253.752 328.5 245.347 329.7C236.941 330.9 240.777 318.033 240.777 318.033C240.777 318.033 239.936 314.216 237.89 314.001" fill="black"/>
<path opacity="0.1" d="M255.085 314.233C255.085 314.233 247.474 327.54 255.738 329.468C264.003 331.396 261.324 318.255 261.324 318.255C261.324 318.255 262.499 314.529 264.559 314.494" fill="black"/>
<path d="M246.609 314.18C246.609 314.18 253.01 328.11 244.605 329.309C236.199 330.509 240.035 317.642 240.035 317.642C240.035 317.642 239.195 313.814 237.156 313.6" fill="#FFD180"/>
<path d="M255.679 313.646C255.679 313.646 248.054 326.956 256.333 328.87C264.611 330.784 261.919 317.657 261.919 317.657C261.919 317.657 263.093 313.931 265.153 313.895" fill="#FFD180"/>
<path opacity="0.5" d="M242.053 326.414H241.909V329.133H242.053V326.414Z" fill="#58555D"/>
<path opacity="0.5" d="M244.38 326.414H244.236V329.133H244.38V326.414Z" fill="#58555D"/>
<path opacity="0.5" d="M243.118 325.548H242.974V329.352H243.118V325.548Z" fill="#58555D"/>
<path opacity="0.5" d="M257.169 325.833H257.025V328.553H257.169V325.833Z" fill="#58555D"/>
<path opacity="0.5" d="M259.496 325.833H259.352V328.553H259.496V325.833Z" fill="#58555D"/>
<path opacity="0.5" d="M258.234 324.964H258.09V328.768H258.234V324.964Z" fill="#58555D"/>
<g opacity="0.5">
<path opacity="0.5" d="M252.45 485.552C261.21 482.611 265.93 473.12 262.992 464.353C260.054 455.585 250.571 450.861 241.811 453.802C233.051 456.742 228.331 466.233 231.269 475.001C234.206 483.768 243.69 488.492 252.45 485.552Z" fill="url(#paint11_linear)"/>
</g>
<path d="M252.11 484.538C260.311 481.785 264.729 472.9 261.979 464.693C259.229 456.485 250.351 452.063 242.151 454.816C233.95 457.568 229.532 466.453 232.282 474.661C235.032 482.868 243.91 487.29 252.11 484.538Z" fill="#F55F44"/>
<g opacity="0.5">
<path opacity="0.5" d="M205.45 490.673C203.2 491.429 200.398 490.891 199.354 488.731C198.753 487.482 198.897 486.085 199.038 484.734C199.192 483.253 199.322 481.975 198.489 481.149C198.059 480.782 197.552 480.516 197.006 480.371C196.302 480.135 195.543 479.938 194.819 479.748C193.528 479.451 192.266 479.037 191.05 478.51C188.66 477.387 187.131 475.491 186.962 473.436C186.818 471.677 187.665 470.073 188.474 468.535C189.282 466.998 190.098 465.471 189.711 463.961C189.187 461.924 186.744 460.957 184.592 460.091L184.241 459.957C181.611 458.902 178.792 456.675 179.495 453.818C179.741 452.822 180.37 452.059 180.979 451.355C181.391 450.897 181.745 450.39 182.033 449.846C182.982 447.844 181.682 445.528 181.102 444.624C180.648 443.921 180.11 443.273 179.59 442.629C178.775 441.684 178.053 440.661 177.435 439.575L177.337 439.392C175.909 436.69 175.881 436.578 176.001 433.633V433.281L177.245 433.33V433.682C177.14 436.353 177.14 436.353 178.437 438.808L178.535 438.991C179.115 440.006 179.792 440.961 180.557 441.845C181.095 442.51 181.65 443.199 182.139 443.935C183.647 446.218 184.016 448.565 183.155 450.377C182.818 451.013 182.402 451.604 181.917 452.136C181.376 452.783 180.863 453.396 180.687 454.113C180.138 456.333 182.94 458.1 184.684 458.796L185.018 458.93C187.327 459.845 190.203 460.985 190.885 463.634C191.391 465.601 190.453 467.374 189.542 469.091C188.779 470.534 188.055 471.906 188.171 473.313C188.326 475.203 190.017 476.642 191.546 477.363C192.693 477.858 193.883 478.246 195.1 478.524C195.845 478.717 196.615 478.921 197.368 479.171C198.099 479.372 198.773 479.741 199.336 480.248C200.591 481.493 200.416 483.2 200.247 484.85C200.12 486.081 199.997 487.246 200.447 488.175C201.259 489.857 203.776 490.103 205.527 489.276C206.961 488.601 208.09 487.45 209.285 486.236C209.672 485.842 210.073 485.438 210.48 485.05C212.709 482.939 214.963 482.018 217.002 482.373C217.648 482.508 218.279 482.712 218.882 482.982C219.352 483.188 219.837 483.355 220.334 483.481C221.443 483.679 222.585 483.451 223.533 482.843C224.481 482.236 225.165 481.292 225.449 480.202C225.495 479.995 225.527 479.776 225.562 479.548C225.671 478.816 225.794 477.986 226.377 477.342C226.961 476.698 227.885 476.462 228.543 476.311L235.328 474.742L235.609 475.955L228.824 477.525C228.181 477.672 227.622 477.827 227.302 478.179C226.982 478.531 226.887 479.118 226.799 479.731C226.764 479.97 226.725 480.22 226.673 480.466C226.316 481.878 225.434 483.102 224.207 483.886C222.981 484.67 221.501 484.957 220.071 484.688C219.506 484.547 218.955 484.359 218.422 484.125C217.9 483.89 217.354 483.711 216.794 483.59C214.727 483.239 212.692 484.67 211.345 485.944C210.955 486.314 210.561 486.715 210.182 487.098C208.962 488.337 207.703 489.621 206.068 490.391C205.868 490.497 205.661 490.591 205.45 490.673Z" fill="url(#paint12_linear)"/>
</g>
<path d="M205.618 490.054C203.369 490.81 200.567 490.272 199.523 488.111C198.921 486.862 199.066 485.466 199.206 484.114C199.361 482.633 199.491 481.356 198.658 480.529C198.227 480.163 197.721 479.897 197.174 479.752C196.471 479.516 195.712 479.319 194.988 479.129C193.696 478.832 192.435 478.417 191.219 477.89C188.829 476.768 187.299 474.872 187.131 472.817C186.986 471.058 187.834 469.453 188.642 467.916C189.451 466.378 190.266 464.851 189.88 463.342C189.356 461.305 186.913 460.337 184.761 459.472L184.41 459.338C181.78 458.283 178.961 456.055 179.664 453.199C179.91 452.203 180.539 451.439 181.147 450.736C181.56 450.278 181.914 449.771 182.202 449.226C183.151 447.224 181.85 444.909 181.27 444.005C180.817 443.301 180.279 442.654 179.759 442.01C178.943 441.064 178.222 440.042 177.604 438.956L177.505 438.773C176.078 436.071 176.05 435.958 176.169 433.014V432.662L177.414 432.711V433.063C177.308 435.733 177.308 435.733 178.606 438.189L178.704 438.372C179.284 439.386 179.961 440.342 180.725 441.225C181.263 441.89 181.819 442.58 182.307 443.315C183.816 445.599 184.185 447.946 183.323 449.758C182.987 450.394 182.571 450.985 182.086 451.517C181.545 452.164 181.031 452.776 180.856 453.494C180.307 455.714 183.109 457.48 184.853 458.177L185.187 458.311C187.496 459.226 190.372 460.365 191.054 463.015C191.56 464.982 190.621 466.755 189.711 468.472C188.948 469.914 188.224 471.287 188.34 472.694C188.495 474.583 190.186 476.022 191.715 476.743C192.862 477.238 194.051 477.627 195.269 477.905C196.014 478.098 196.784 478.302 197.536 478.552C198.267 478.753 198.941 479.121 199.505 479.629C200.76 480.874 200.584 482.58 200.416 484.231C200.289 485.462 200.166 486.627 200.616 487.555C201.428 489.237 203.945 489.484 205.696 488.657C207.13 487.981 208.259 486.831 209.454 485.617C209.841 485.223 210.241 484.818 210.649 484.431C212.878 482.32 215.131 481.398 217.17 481.754C217.817 481.888 218.448 482.092 219.051 482.362C219.52 482.569 220.006 482.736 220.503 482.862C221.611 483.06 222.753 482.832 223.701 482.224C224.649 481.616 225.334 480.673 225.618 479.583C225.664 479.375 225.695 479.157 225.73 478.928C225.839 478.197 225.962 477.366 226.546 476.722C227.13 476.079 228.054 475.843 228.712 475.692L235.496 474.122L235.778 475.336L228.993 476.905C228.349 477.053 227.79 477.208 227.471 477.56C227.151 477.912 227.056 478.499 226.968 479.111C226.933 479.351 226.894 479.6 226.841 479.847C226.484 481.259 225.603 482.482 224.376 483.267C223.149 484.051 221.67 484.338 220.239 484.069C219.675 483.928 219.123 483.739 218.591 483.506C218.068 483.271 217.523 483.092 216.963 482.971C214.896 482.619 212.86 484.051 211.514 485.325C211.124 485.694 210.73 486.095 210.35 486.479C209.13 487.717 207.872 489.002 206.237 489.772C206.037 489.878 205.83 489.972 205.618 490.054Z" fill="#F55F44"/>
<path opacity="0.2" d="M246.219 458.511C246.219 458.511 254.884 457.199 259.127 469.302" stroke="black" stroke-miterlimit="10"/>
<path opacity="0.2" d="M236.632 477.792C236.632 477.792 230.199 468.679 241.663 458.631" stroke="black" stroke-miterlimit="10"/>
<path opacity="0.2" d="M239.265 474.464C239.265 474.464 236.161 469.682 239.416 465.397" stroke="black" stroke-miterlimit="10"/>
<path opacity="0.2" d="M244.823 463.581C244.823 463.581 248.932 465.207 249.509 472.529" stroke="black" stroke-miterlimit="10"/>
<path opacity="0.2" d="M249.646 455.01C249.646 455.01 256.065 456.238 260.544 465.073" stroke="black" stroke-miterlimit="10"/>
<path opacity="0.2" d="M241.374 457.787C241.374 457.787 244.408 455.64 247.224 456.763" stroke="black" stroke-miterlimit="10"/>
<path opacity="0.2" d="M243.666 478.049C243.666 478.049 247.723 480.631 258.178 473.179" stroke="black" stroke-miterlimit="10"/>
<path opacity="0.2" d="M242.946 483.186C242.946 483.186 245.484 485.715 250.768 483.566" stroke="black" stroke-miterlimit="10"/>
<path opacity="0.2" d="M235.419 460.728C234.329 462.346 233.597 464.178 233.271 466.102C232.945 468.026 233.032 469.997 233.528 471.885" stroke="black" stroke-miterlimit="10"/>
<path opacity="0.2" d="M238.826 477.053C238.826 477.053 238.492 479.421 241.139 480.596" stroke="black" stroke-miterlimit="10"/>
<path opacity="0.2" d="M259.869 474.312C259.869 474.312 259.707 478.886 257.176 479.161" stroke="black" stroke-miterlimit="10"/>
<path opacity="0.2" d="M245.979 481.039C247.507 481.243 249.061 481.096 250.523 480.608C251.985 480.12 253.317 479.305 254.417 478.225" stroke="black" stroke-miterlimit="10"/>
<path opacity="0.2" d="M249.889 464.7C249.889 464.7 252.086 466.217 251.868 468.922" stroke="black" stroke-miterlimit="10"/>
<path opacity="0.2" d="M241.508 467.701C241.508 467.701 240.896 470.914 242.475 472.824" stroke="black" stroke-miterlimit="10"/>
<path opacity="0.2" d="M243.364 467.079C243.364 467.079 245.621 469.893 245.006 471.976" stroke="black" stroke-miterlimit="10"/>
</g>
<path fill-rule="evenodd" clip-rule="evenodd" d="M251.97 119.649C251.511 120.438 251.256 121.31 251.256 122.228C251.256 125.74 254.985 128.586 259.585 128.586C264.185 128.586 267.915 125.74 267.915 122.228C267.915 118.717 264.185 115.87 259.585 115.87C258.382 115.87 257.239 116.065 256.206 116.415L262.888 121.515L258.651 124.75L251.97 119.649Z" fill="white" fill-opacity="0.9"/>
<path fill-rule="evenodd" clip-rule="evenodd" d="M292.902 141.302C288.303 141.302 284.573 144.149 284.573 147.661C284.573 151.172 288.303 154.019 292.902 154.019C294.106 154.019 295.248 153.824 296.281 153.474L289.599 148.374L293.837 145.139L300.519 150.24C300.976 149.451 301.232 148.579 301.232 147.661C301.232 144.149 297.502 141.302 292.902 141.302Z" fill="white" fill-opacity="0.9"/>
<path d="M262.923 121.589L293.89 145.228L289.716 148.415L258.748 124.777L262.923 121.589Z" fill="white" fill-opacity="0.9"/>
<path fill-rule="evenodd" clip-rule="evenodd" d="M267.915 147.661C267.915 144.149 264.185 141.302 259.585 141.302C254.985 141.302 251.256 144.149 251.256 147.661C251.256 148.579 251.511 149.451 251.97 150.24L258.651 145.14L262.888 148.374L256.206 153.474C257.239 153.824 258.382 154.019 259.585 154.019C264.185 154.019 267.915 151.172 267.915 147.661Z" fill="white" fill-opacity="0.9"/>
<path fill-rule="evenodd" clip-rule="evenodd" d="M296.281 116.415C295.248 116.065 294.106 115.87 292.902 115.87C288.303 115.87 284.573 118.717 284.573 122.228C284.573 125.74 288.303 128.586 292.902 128.586C297.502 128.586 301.232 125.74 301.232 122.228C301.232 121.31 300.976 120.437 300.519 119.649L293.837 124.749L289.599 121.515L296.281 116.415Z" fill="white" fill-opacity="0.9"/>
<path d="M258.748 145.112L289.716 121.474L293.89 124.661L262.923 148.3L258.748 145.112Z" fill="white" fill-opacity="0.9"/>
<path d="M91.0592 154.019H79.0289V100.596H91.0592V154.019ZM144.559 110.394H129.325V154.019H117.258V110.394H102.099V100.596H144.559V110.394ZM175.152 137.776H154.779V129.543H175.152V137.776ZM221.091 110.394H202.245V123.507H219.564V133.268H202.245V154.019H190.215V100.596H221.091V110.394ZM238.537 109.835C236.551 109.835 234.924 109.252 233.658 108.084C232.392 106.892 231.758 105.439 231.758 103.726C231.758 101.962 232.392 100.522 233.658 99.4041C234.924 98.2864 236.551 97.7277 238.537 97.7277C240.548 97.7277 242.175 98.2864 243.416 99.4041C244.683 100.522 245.316 101.962 245.316 103.726C245.316 105.514 244.683 106.979 243.416 108.122C242.175 109.264 240.548 109.835 238.537 109.835ZM244.347 154.019H232.578V115.87H244.347V154.019ZM342.125 138.297H317.245C317.641 143.836 321.131 146.605 327.71 146.605C331.908 146.605 335.594 145.611 338.773 143.625V152.119C335.247 154.006 330.666 154.95 325.029 154.95C318.871 154.95 314.091 153.249 310.689 149.846C307.287 146.419 305.587 141.65 305.587 135.541C305.587 129.207 307.424 124.191 311.099 120.49C314.773 116.789 319.293 114.939 324.657 114.939C330.218 114.939 334.514 116.591 337.543 119.894C340.598 123.197 342.125 127.68 342.125 133.343V138.297ZM331.212 131.07C331.212 125.606 329.001 122.874 324.583 122.874C322.695 122.874 321.057 123.656 319.665 125.221C318.299 126.786 317.468 128.735 317.17 131.07H331.212ZM377.82 126.488C376.405 125.718 374.754 125.333 372.868 125.333C370.31 125.333 368.31 126.277 366.87 128.164C365.43 130.027 364.709 132.573 364.709 135.801V154.019H352.942V115.87H364.709V122.949H364.86C366.721 117.783 370.074 115.2 374.916 115.2C376.157 115.2 377.126 115.349 377.82 115.647V126.488Z" fill="white" fill-opacity="0.9"/>
<defs>
<linearGradient id="paint0_linear" x1="225" y1="0" x2="225" y2="563" gradientUnits="userSpaceOnUse">
<stop stop-color="#8673FF"/>
<stop offset="1" stop-color="#B06AB3"/>
</linearGradient>
<linearGradient id="paint1_linear" x1="224.5" y1="432.827" x2="224.5" y2="247.852" gradientUnits="userSpaceOnUse">
<stop stop-color="#808080" stop-opacity="0.25"/>
<stop offset="0.54" stop-color="#808080" stop-opacity="0.12"/>
<stop offset="1" stop-color="#808080" stop-opacity="0.1"/>
</linearGradient>
<linearGradient id="paint2_linear" x1="26784.3" y1="-156098" x2="18307.7" y2="-168140" gradientUnits="userSpaceOnUse">
<stop stop-color="#808080" stop-opacity="0.25"/>
<stop offset="0.54" stop-color="#808080" stop-opacity="0.12"/>
<stop offset="1" stop-color="#808080" stop-opacity="0.1"/>
</linearGradient>
<linearGradient id="paint3_linear" x1="3966.3" y1="-22466.6" x2="3815.02" y2="-22681.5" gradientUnits="userSpaceOnUse">
<stop stop-color="#808080" stop-opacity="0.25"/>
<stop offset="0.54" stop-color="#808080" stop-opacity="0.12"/>
<stop offset="1" stop-color="#808080" stop-opacity="0.1"/>
</linearGradient>
<linearGradient id="paint4_linear" x1="4621.42" y1="-22107.8" x2="4470.08" y2="-22322.8" gradientUnits="userSpaceOnUse">
<stop stop-color="#808080" stop-opacity="0.25"/>
<stop offset="0.54" stop-color="#808080" stop-opacity="0.12"/>
<stop offset="1" stop-color="#808080" stop-opacity="0.1"/>
</linearGradient>
<linearGradient id="paint5_linear" x1="3624.92" y1="-21711.5" x2="3473.58" y2="-21926.5" gradientUnits="userSpaceOnUse">
<stop stop-color="#808080" stop-opacity="0.25"/>
<stop offset="0.54" stop-color="#808080" stop-opacity="0.12"/>
<stop offset="1" stop-color="#808080" stop-opacity="0.1"/>
</linearGradient>
<linearGradient id="paint6_linear" x1="4243.51" y1="-21325.9" x2="4092.17" y2="-21540.9" gradientUnits="userSpaceOnUse">
<stop stop-color="#808080" stop-opacity="0.25"/>
<stop offset="0.54" stop-color="#808080" stop-opacity="0.12"/>
<stop offset="1" stop-color="#808080" stop-opacity="0.1"/>
</linearGradient>
<linearGradient id="paint7_linear" x1="19600.7" y1="16652.6" x2="19600.7" y2="10025.4" gradientUnits="userSpaceOnUse">
<stop stop-color="#808080" stop-opacity="0.25"/>
<stop offset="0.54" stop-color="#808080" stop-opacity="0.12"/>
<stop offset="1" stop-color="#808080" stop-opacity="0.1"/>
</linearGradient>
<linearGradient id="paint8_linear" x1="37438.2" y1="35231.6" x2="37438.2" y2="15718.1" gradientUnits="userSpaceOnUse">
<stop stop-color="#808080" stop-opacity="0.25"/>
<stop offset="0.54" stop-color="#808080" stop-opacity="0.12"/>
<stop offset="1" stop-color="#808080" stop-opacity="0.1"/>
</linearGradient>
<linearGradient id="paint9_linear" x1="249.238" y1="302.668" x2="249.238" y2="299.108" gradientUnits="userSpaceOnUse">
<stop stop-color="white"/>
<stop offset="1"/>
</linearGradient>
<linearGradient id="paint10_linear" x1="132048" y1="150335" x2="132048" y2="13218.6" gradientUnits="userSpaceOnUse">
<stop stop-color="#808080" stop-opacity="0.25"/>
<stop offset="0.54" stop-color="#808080" stop-opacity="0.12"/>
<stop offset="1" stop-color="#808080" stop-opacity="0.1"/>
</linearGradient>
<linearGradient id="paint11_linear" x1="34300.5" y1="-22199" x2="33286.3" y2="-25220.5" gradientUnits="userSpaceOnUse">
<stop stop-color="#808080" stop-opacity="0.25"/>
<stop offset="0.54" stop-color="#808080" stop-opacity="0.12"/>
<stop offset="1" stop-color="#808080" stop-opacity="0.1"/>
</linearGradient>
<linearGradient id="paint12_linear" x1="54804.1" y1="-39276.7" x2="51475.2" y2="-49194.7" gradientUnits="userSpaceOnUse">
<stop stop-color="#808080" stop-opacity="0.25"/>
<stop offset="0.54" stop-color="#808080" stop-opacity="0.12"/>
<stop offset="1" stop-color="#808080" stop-opacity="0.1"/>
</linearGradient>
<clipPath id="clip0">
<rect x="54" y="216" width="341" height="275" fill="white"/>
</clipPath>
</defs>
</svg>
