<svg width="450" height="488" viewBox="0 0 450 488" fill="none" xmlns="http://www.w3.org/2000/svg">
<rect width="450" height="488" fill="url(#paint0_linear)"/>
<path d="M113.072 71.666C113.072 74.5957 112.404 76.9453 111.068 78.7148C109.744 80.4727 107.951 81.3516 105.689 81.3516C103.768 81.3516 102.215 80.6836 101.031 79.3477V88.3125H95.9512V61.9805H100.662L100.838 63.8438C102.068 62.3672 103.674 61.6289 105.654 61.6289C107.998 61.6289 109.82 62.4961 111.121 64.2305C112.422 65.9648 113.072 68.3555 113.072 71.4023V71.666ZM107.992 71.2969C107.992 69.5273 107.676 68.1621 107.043 67.2012C106.422 66.2402 105.514 65.7598 104.318 65.7598C102.725 65.7598 101.629 66.3691 101.031 67.5879V75.375C101.652 76.6289 102.76 77.2559 104.354 77.2559C106.779 77.2559 107.992 75.2695 107.992 71.2969ZM115.445 71.3145C115.445 69.4277 115.809 67.7461 116.535 66.2695C117.262 64.793 118.305 63.6504 119.664 62.8418C121.035 62.0332 122.623 61.6289 124.428 61.6289C126.994 61.6289 129.086 62.4141 130.703 63.9844C132.332 65.5547 133.24 67.6875 133.428 70.3828L133.463 71.6836C133.463 74.6016 132.648 76.9453 131.02 78.7148C129.391 80.4727 127.205 81.3516 124.463 81.3516C121.721 81.3516 119.529 80.4727 117.889 78.7148C116.26 76.957 115.445 74.5664 115.445 71.543V71.3145ZM120.525 71.6836C120.525 73.4883 120.865 74.8711 121.545 75.832C122.225 76.7812 123.197 77.2559 124.463 77.2559C125.693 77.2559 126.654 76.7871 127.346 75.8496C128.037 74.9004 128.383 73.3887 128.383 71.3145C128.383 69.5449 128.037 68.1738 127.346 67.2012C126.654 66.2285 125.682 65.7422 124.428 65.7422C123.186 65.7422 122.225 66.2285 121.545 67.2012C120.865 68.1621 120.525 69.6562 120.525 71.6836ZM147.279 66.7441C146.588 66.6504 145.979 66.6035 145.451 66.6035C143.529 66.6035 142.27 67.2539 141.672 68.5547V81H136.592V61.9805H141.391L141.531 64.248C142.551 62.502 143.963 61.6289 145.768 61.6289C146.33 61.6289 146.857 61.7051 147.35 61.8574L147.279 66.7441ZM156.701 57.3047V61.9805H159.953V65.707H156.701V75.1992C156.701 75.9023 156.836 76.4062 157.105 76.7109C157.375 77.0156 157.891 77.168 158.652 77.168C159.215 77.168 159.713 77.127 160.146 77.0449V80.8945C159.15 81.1992 158.125 81.3516 157.07 81.3516C153.508 81.3516 151.691 79.5527 151.621 75.9551V65.707H148.844V61.9805H151.621V57.3047H156.701ZM164.172 81V65.707H161.342V61.9805H164.172V60.3633C164.172 58.2305 164.781 56.5781 166 55.4062C167.23 54.2227 168.947 53.6309 171.15 53.6309C171.854 53.6309 172.715 53.748 173.734 53.9824L173.682 57.9199C173.26 57.8145 172.744 57.7617 172.135 57.7617C170.225 57.7617 169.27 58.6582 169.27 60.4512V61.9805H173.049V65.707H169.27V81H164.172ZM174.895 71.3145C174.895 69.4277 175.258 67.7461 175.984 66.2695C176.711 64.793 177.754 63.6504 179.113 62.8418C180.484 62.0332 182.072 61.6289 183.877 61.6289C186.443 61.6289 188.535 62.4141 190.152 63.9844C191.781 65.5547 192.689 67.6875 192.877 70.3828L192.912 71.6836C192.912 74.6016 192.098 76.9453 190.469 78.7148C188.84 80.4727 186.654 81.3516 183.912 81.3516C181.17 81.3516 178.979 80.4727 177.338 78.7148C175.709 76.957 174.895 74.5664 174.895 71.543V71.3145ZM179.975 71.6836C179.975 73.4883 180.314 74.8711 180.994 75.832C181.674 76.7812 182.646 77.2559 183.912 77.2559C185.143 77.2559 186.104 76.7871 186.795 75.8496C187.486 74.9004 187.832 73.3887 187.832 71.3145C187.832 69.5449 187.486 68.1738 186.795 67.2012C186.104 66.2285 185.131 65.7422 183.877 65.7422C182.635 65.7422 181.674 66.2285 180.994 67.2012C180.314 68.1621 179.975 69.6562 179.975 71.6836ZM201.402 81H196.305V54H201.402V81ZM210.965 81H205.867V61.9805H210.965V81ZM205.568 57.0586C205.568 56.2969 205.82 55.6699 206.324 55.1777C206.84 54.6855 207.537 54.4395 208.416 54.4395C209.283 54.4395 209.975 54.6855 210.49 55.1777C211.006 55.6699 211.264 56.2969 211.264 57.0586C211.264 57.832 211 58.4648 210.473 58.957C209.957 59.4492 209.271 59.6953 208.416 59.6953C207.561 59.6953 206.869 59.4492 206.342 58.957C205.826 58.4648 205.568 57.832 205.568 57.0586ZM214.375 71.3145C214.375 69.4277 214.738 67.7461 215.465 66.2695C216.191 64.793 217.234 63.6504 218.594 62.8418C219.965 62.0332 221.553 61.6289 223.357 61.6289C225.924 61.6289 228.016 62.4141 229.633 63.9844C231.262 65.5547 232.17 67.6875 232.357 70.3828L232.393 71.6836C232.393 74.6016 231.578 76.9453 229.949 78.7148C228.32 80.4727 226.135 81.3516 223.393 81.3516C220.65 81.3516 218.459 80.4727 216.818 78.7148C215.189 76.957 214.375 74.5664 214.375 71.543V71.3145ZM219.455 71.6836C219.455 73.4883 219.795 74.8711 220.475 75.832C221.154 76.7812 222.127 77.2559 223.393 77.2559C224.623 77.2559 225.584 76.7871 226.275 75.8496C226.967 74.9004 227.312 73.3887 227.312 71.3145C227.312 69.5449 226.967 68.1738 226.275 67.2012C225.584 66.2285 224.611 65.7422 223.357 65.7422C222.115 65.7422 221.154 66.2285 220.475 67.2012C219.795 68.1621 219.455 69.6562 219.455 71.6836ZM245.822 75.7441C245.822 75.123 245.512 74.6367 244.891 74.2852C244.281 73.9219 243.297 73.5996 241.938 73.3184C237.414 72.3691 235.152 70.4473 235.152 67.5527C235.152 65.8652 235.85 64.459 237.244 63.334C238.65 62.1973 240.484 61.6289 242.746 61.6289C245.16 61.6289 247.088 62.1973 248.529 63.334C249.982 64.4707 250.709 65.9473 250.709 67.7637H245.629C245.629 67.0371 245.395 66.4395 244.926 65.9707C244.457 65.4902 243.725 65.25 242.729 65.25C241.873 65.25 241.211 65.4434 240.742 65.8301C240.273 66.2168 240.039 66.709 240.039 67.3066C240.039 67.8691 240.303 68.3262 240.83 68.6777C241.369 69.0176 242.271 69.3164 243.537 69.5742C244.803 69.8203 245.869 70.1016 246.736 70.418C249.42 71.4023 250.762 73.1074 250.762 75.5332C250.762 77.2676 250.018 78.6738 248.529 79.752C247.041 80.8184 245.119 81.3516 242.764 81.3516C241.17 81.3516 239.752 81.0703 238.51 80.5078C237.279 79.9336 236.312 79.1543 235.609 78.1699C234.906 77.1738 234.555 76.1016 234.555 74.9531H239.371C239.418 75.8555 239.752 76.5469 240.373 77.0273C240.994 77.5078 241.826 77.748 242.869 77.748C243.842 77.748 244.574 77.5664 245.066 77.2031C245.57 76.8281 245.822 76.3418 245.822 75.7441ZM254.312 78.5039C254.312 77.6953 254.582 77.0391 255.121 76.5352C255.672 76.0312 256.357 75.7793 257.178 75.7793C258.01 75.7793 258.695 76.0312 259.234 76.5352C259.785 77.0391 260.061 77.6953 260.061 78.5039C260.061 79.3008 259.791 79.9512 259.252 80.4551C258.713 80.9473 258.021 81.1934 257.178 81.1934C256.346 81.1934 255.66 80.9473 255.121 80.4551C254.582 79.9512 254.312 79.3008 254.312 78.5039ZM270.607 57.3047V61.9805H273.859V65.707H270.607V75.1992C270.607 75.9023 270.742 76.4062 271.012 76.7109C271.281 77.0156 271.797 77.168 272.559 77.168C273.121 77.168 273.619 77.127 274.053 77.0449V80.8945C273.057 81.1992 272.031 81.3516 270.977 81.3516C267.414 81.3516 265.598 79.5527 265.527 75.9551V65.707H262.75V61.9805H265.527V57.3047H270.607ZM285.443 81.3516C282.654 81.3516 280.381 80.4961 278.623 78.7852C276.877 77.0742 276.004 74.7949 276.004 71.9473V71.4551C276.004 69.5449 276.373 67.8398 277.111 66.3398C277.85 64.8281 278.893 63.668 280.24 62.8594C281.6 62.0391 283.146 61.6289 284.881 61.6289C287.482 61.6289 289.527 62.4492 291.016 64.0898C292.516 65.7305 293.266 68.0566 293.266 71.0684V73.1426H281.154C281.318 74.3848 281.811 75.3809 282.631 76.1309C283.463 76.8809 284.512 77.2559 285.777 77.2559C287.734 77.2559 289.264 76.5469 290.365 75.1289L292.861 77.9238C292.1 79.002 291.068 79.8457 289.768 80.4551C288.467 81.0527 287.025 81.3516 285.443 81.3516ZM284.863 65.7422C283.855 65.7422 283.035 66.082 282.402 66.7617C281.781 67.4414 281.383 68.4141 281.207 69.6797H288.273V69.2754C288.25 68.1504 287.945 67.2832 287.359 66.6738C286.773 66.0527 285.941 65.7422 284.863 65.7422ZM304.076 77.2559C305.014 77.2559 305.775 76.998 306.361 76.4824C306.947 75.9668 307.252 75.2812 307.275 74.4258H312.039C312.027 75.7148 311.676 76.8984 310.984 77.9766C310.293 79.043 309.344 79.875 308.137 80.4727C306.941 81.0586 305.617 81.3516 304.164 81.3516C301.445 81.3516 299.301 80.4902 297.73 78.7676C296.16 77.0332 295.375 74.6426 295.375 71.5957V71.2617C295.375 68.332 296.154 65.9941 297.713 64.248C299.271 62.502 301.41 61.6289 304.129 61.6289C306.508 61.6289 308.412 62.3086 309.842 63.668C311.283 65.0156 312.016 66.8145 312.039 69.0645H307.275C307.252 68.0801 306.947 67.2832 306.361 66.6738C305.775 66.0527 305.002 65.7422 304.041 65.7422C302.857 65.7422 301.961 66.1758 301.352 67.043C300.754 67.8984 300.455 69.293 300.455 71.2266V71.7539C300.455 73.7109 300.754 75.1172 301.352 75.9727C301.949 76.8281 302.857 77.2559 304.076 77.2559ZM319.896 64.0547C321.244 62.4375 322.938 61.6289 324.977 61.6289C329.102 61.6289 331.193 64.0254 331.252 68.8184V81H326.172V68.959C326.172 67.8691 325.938 67.0664 325.469 66.5508C325 66.0234 324.221 65.7598 323.131 65.7598C321.643 65.7598 320.564 66.334 319.896 67.4824V81H314.816V54H319.896V64.0547Z" fill="white"/>
<rect x="38" y="118" width="373" height="321" fill="white"/>
<path d="M411 118H38V439H411V118Z" fill="url(#paint1_linear)"/>
<path d="M165.926 241H90.9509V315.384H165.926V241Z" fill="url(#paint2_linear)"/>
<path d="M166 243.044H91V313.044H166V243.044Z" fill="#5A67D8"/>
<rect x="91" y="295.044" width="75" height="20" fill="#D6D6D6"/>
<rect x="97" y="301.044" width="52" height="4" fill="#373737"/>
<rect x="97" y="309.044" width="12" height="2" fill="#A293FF"/>
<rect x="97" y="309.044" width="12" height="2" fill="#A293FF"/>
<rect x="97" y="309.044" width="12" height="2" fill="#A293FF"/>
<rect x="112" y="309.044" width="12" height="2" fill="#A293FF"/>
<rect x="112" y="309.044" width="12" height="2" fill="#A293FF"/>
<rect x="112" y="309.044" width="12" height="2" fill="#A293FF"/>
<rect x="127" y="309.044" width="12" height="2" fill="#A293FF"/>
<rect x="127" y="309.044" width="12" height="2" fill="#A293FF"/>
<rect x="127" y="309.044" width="12" height="2" fill="#A293FF"/>
<path d="M267.975 241H193V315.384H267.975V241Z" fill="url(#paint3_linear)"/>
<path d="M268.049 243.044H193.049V313.044H268.049V243.044Z" fill="#5A67D8"/>
<rect x="193.049" y="295.044" width="75" height="20" fill="#D6D6D6"/>
<rect x="199.049" y="301.044" width="52" height="4" fill="#373737"/>
<rect x="199.049" y="309.044" width="12" height="2" fill="#A293FF"/>
<rect x="199.049" y="309.044" width="12" height="2" fill="#A293FF"/>
<rect x="199.049" y="309.044" width="12" height="2" fill="#A293FF"/>
<rect x="214.049" y="309.044" width="12" height="2" fill="#A293FF"/>
<rect x="214.049" y="309.044" width="12" height="2" fill="#A293FF"/>
<rect x="214.049" y="309.044" width="12" height="2" fill="#A293FF"/>
<rect x="229.049" y="309.044" width="12" height="2" fill="#A293FF"/>
<rect x="229.049" y="309.044" width="12" height="2" fill="#A293FF"/>
<rect x="229.049" y="309.044" width="12" height="2" fill="#A293FF"/>
<path d="M370.024 241H295.049V315.384H370.024V241Z" fill="url(#paint4_linear)"/>
<path d="M370.098 243.044H295.098V313.044H370.098V243.044Z" fill="#5A67D8"/>
<rect x="295.098" y="295.044" width="75" height="20" fill="#D6D6D6"/>
<rect x="301.098" y="301.044" width="52" height="4" fill="#373737"/>
<rect x="301.098" y="309.044" width="12" height="2" fill="#A293FF"/>
<rect x="301.098" y="309.044" width="12" height="2" fill="#A293FF"/>
<rect x="301.098" y="309.044" width="12" height="2" fill="#A293FF"/>
<rect x="316.098" y="309.044" width="12" height="2" fill="#A293FF"/>
<rect x="316.098" y="309.044" width="12" height="2" fill="#A293FF"/>
<rect x="316.098" y="309.044" width="12" height="2" fill="#A293FF"/>
<rect x="331.098" y="309.044" width="12" height="2" fill="#A293FF"/>
<rect x="331.098" y="309.044" width="12" height="2" fill="#A293FF"/>
<rect x="331.098" y="309.044" width="12" height="2" fill="#A293FF"/>
<path d="M165.975 329H91V403.384H165.975V329Z" fill="url(#paint5_linear)"/>
<path d="M166.049 331.044H91.0491V401.044H166.049V331.044Z" fill="#5A67D8"/>
<rect x="91.0491" y="383.044" width="75" height="20" fill="#D6D6D6"/>
<rect x="97.0491" y="389.044" width="52" height="4" fill="#373737"/>
<rect x="97.0491" y="397.044" width="12" height="2" fill="#A293FF"/>
<rect x="97.0491" y="397.044" width="12" height="2" fill="#A293FF"/>
<rect x="97.0491" y="397.044" width="12" height="2" fill="#A293FF"/>
<rect x="112.049" y="397.044" width="12" height="2" fill="#A293FF"/>
<rect x="112.049" y="397.044" width="12" height="2" fill="#A293FF"/>
<rect x="112.049" y="397.044" width="12" height="2" fill="#A293FF"/>
<rect x="127.049" y="397.044" width="12" height="2" fill="#A293FF"/>
<rect x="127.049" y="397.044" width="12" height="2" fill="#A293FF"/>
<rect x="127.049" y="397.044" width="12" height="2" fill="#A293FF"/>
<path d="M268.024 329H193.049V403.384H268.024V329Z" fill="url(#paint6_linear)"/>
<path d="M268.098 331.044H193.098V401.044H268.098V331.044Z" fill="#5A67D8"/>
<rect x="193.098" y="383.044" width="75" height="20" fill="#D6D6D6"/>
<rect x="199.098" y="389.044" width="52" height="4" fill="#373737"/>
<rect x="199.098" y="397.044" width="12" height="2" fill="#A293FF"/>
<rect x="199.098" y="397.044" width="12" height="2" fill="#A293FF"/>
<rect x="199.098" y="397.044" width="12" height="2" fill="#A293FF"/>
<rect x="214.098" y="397.044" width="12" height="2" fill="#A293FF"/>
<rect x="214.098" y="397.044" width="12" height="2" fill="#A293FF"/>
<rect x="214.098" y="397.044" width="12" height="2" fill="#A293FF"/>
<rect x="229.098" y="397.044" width="12" height="2" fill="#A293FF"/>
<rect x="229.098" y="397.044" width="12" height="2" fill="#A293FF"/>
<rect x="229.098" y="397.044" width="12" height="2" fill="#A293FF"/>
<path d="M370.073 329H295.098V403.384H370.073V329Z" fill="url(#paint7_linear)"/>
<path d="M370.147 331.044H295.147V401.044H370.147V331.044Z" fill="#5A67D8"/>
<rect x="295.147" y="383.044" width="75" height="20" fill="#D6D6D6"/>
<rect x="301.147" y="389.044" width="52" height="4" fill="#373737"/>
<rect x="301.147" y="397.044" width="12" height="2" fill="#A293FF"/>
<rect x="301.147" y="397.044" width="12" height="2" fill="#A293FF"/>
<rect x="301.147" y="397.044" width="12" height="2" fill="#A293FF"/>
<rect x="316.147" y="397.044" width="12" height="2" fill="#A293FF"/>
<rect x="316.147" y="397.044" width="12" height="2" fill="#A293FF"/>
<rect x="316.147" y="397.044" width="12" height="2" fill="#A293FF"/>
<rect x="331.147" y="397.044" width="12" height="2" fill="#A293FF"/>
<rect x="331.147" y="397.044" width="12" height="2" fill="#A293FF"/>
<rect x="331.147" y="397.044" width="12" height="2" fill="#A293FF"/>
<rect x="38" y="118" width="373" height="110" fill="#363636" fill-opacity="0.96"/>
<rect x="177" y="156" width="96" height="13" fill="#FDFDFD"/>
<rect x="205" y="179" width="43" height="12" fill="#5A67D8"/>
<rect x="213" y="183" width="28" height="4.36364" fill="white"/>
<defs>
<linearGradient id="paint0_linear" x1="225" y1="0" x2="225" y2="488" gradientUnits="userSpaceOnUse">
<stop stop-color="#8673FF"/>
<stop offset="1" stop-color="#B06AB3"/>
</linearGradient>
<linearGradient id="paint1_linear" x1="224.5" y1="439" x2="224.5" y2="118" gradientUnits="userSpaceOnUse">
<stop offset="0.01" stop-color="#808080" stop-opacity="0.25"/>
<stop offset="0.54" stop-color="#808080" stop-opacity="0.12"/>
<stop offset="1" stop-color="#808080" stop-opacity="0.1"/>
</linearGradient>
<linearGradient id="paint2_linear" x1="128.438" y1="315.384" x2="128.438" y2="241" gradientUnits="userSpaceOnUse">
<stop stop-color="#B3B3B3" stop-opacity="0.25"/>
<stop offset="0.54" stop-color="#B3B3B3" stop-opacity="0.12"/>
<stop offset="1" stop-color="#B3B3B3" stop-opacity="0.1"/>
</linearGradient>
<linearGradient id="paint3_linear" x1="230.487" y1="315.384" x2="230.487" y2="241" gradientUnits="userSpaceOnUse">
<stop stop-color="#B3B3B3" stop-opacity="0.25"/>
<stop offset="0.54" stop-color="#B3B3B3" stop-opacity="0.12"/>
<stop offset="1" stop-color="#B3B3B3" stop-opacity="0.1"/>
</linearGradient>
<linearGradient id="paint4_linear" x1="332.537" y1="315.384" x2="332.537" y2="241" gradientUnits="userSpaceOnUse">
<stop stop-color="#B3B3B3" stop-opacity="0.25"/>
<stop offset="0.54" stop-color="#B3B3B3" stop-opacity="0.12"/>
<stop offset="1" stop-color="#B3B3B3" stop-opacity="0.1"/>
</linearGradient>
<linearGradient id="paint5_linear" x1="128.487" y1="403.384" x2="128.487" y2="329" gradientUnits="userSpaceOnUse">
<stop stop-color="#B3B3B3" stop-opacity="0.25"/>
<stop offset="0.54" stop-color="#B3B3B3" stop-opacity="0.12"/>
<stop offset="1" stop-color="#B3B3B3" stop-opacity="0.1"/>
</linearGradient>
<linearGradient id="paint6_linear" x1="230.537" y1="403.384" x2="230.537" y2="329" gradientUnits="userSpaceOnUse">
<stop stop-color="#B3B3B3" stop-opacity="0.25"/>
<stop offset="0.54" stop-color="#B3B3B3" stop-opacity="0.12"/>
<stop offset="1" stop-color="#B3B3B3" stop-opacity="0.1"/>
</linearGradient>
<linearGradient id="paint7_linear" x1="332.586" y1="403.384" x2="332.586" y2="329" gradientUnits="userSpaceOnUse">
<stop stop-color="#B3B3B3" stop-opacity="0.25"/>
<stop offset="0.54" stop-color="#B3B3B3" stop-opacity="0.12"/>
<stop offset="1" stop-color="#B3B3B3" stop-opacity="0.1"/>
</linearGradient>
</defs>
</svg>
