<svg width="50" height="50" viewBox="0 0 50 50" fill="none" xmlns="http://www.w3.org/2000/svg">
<path d="M25 0C11.1929 0 0 11.1929 0 25C0 38.8071 11.1929 50 25 50C38.8071 50 50 38.8071 50 25C50 11.1929 38.8071 0 25 0ZM39.8464 39.8464C37.9167 41.776 35.671 43.2904 33.1712 44.3478C32.5362 44.6163 31.8914 44.8521 31.2375 45.0554V41.3086C31.2375 39.3392 30.5621 37.8906 29.2111 36.9629C30.0576 36.8815 30.8347 36.7676 31.5427 36.6211C32.2507 36.4746 32.9995 36.263 33.7888 35.9863C34.5782 35.7097 35.2862 35.3801 35.9128 34.9976C36.5396 34.615 37.1417 34.1187 37.7194 33.5083C38.2974 32.8979 38.7814 32.2062 39.1721 31.4331C39.5627 30.66 39.8721 29.7322 40.0998 28.6499C40.3277 27.5676 40.4416 26.3753 40.4416 25.0732C40.4416 22.5505 39.6197 20.4021 37.9758 18.6279C38.7246 16.6748 38.6432 14.5508 37.7316 12.2559L37.1213 12.1826C36.6982 12.1338 35.9372 12.3128 34.8386 12.7197C33.7399 13.1267 32.507 13.7939 31.1398 14.7217C29.2031 14.1846 27.193 13.916 25.1097 13.916C23.0101 13.916 21.0081 14.1846 19.1038 14.7217C18.2412 14.1357 17.4233 13.6516 16.6502 13.269C15.8771 12.8865 15.2586 12.6262 14.7947 12.4878C14.3309 12.3494 13.8995 12.264 13.5008 12.2314C13.1021 12.1989 12.8457 12.1907 12.7317 12.207C12.6178 12.2233 12.5364 12.2396 12.4876 12.2559C11.5762 14.5671 11.4947 16.6911 12.2435 18.6279C10.5996 20.4021 9.77764 22.5505 9.77764 25.0732C9.77764 26.3753 9.8916 27.5676 10.1194 28.6499C10.3473 29.7322 10.6565 30.66 11.0472 31.4331C11.4378 32.2062 11.922 32.8979 12.4998 33.5083C13.0776 34.1187 13.6798 34.615 14.3064 34.9976C14.9331 35.3801 15.6411 35.7097 16.4305 35.9863C17.2198 36.263 17.9686 36.4746 18.6766 36.6211C19.3846 36.7676 20.1617 36.8815 21.0081 36.9629C19.6734 37.8743 19.0062 39.3229 19.0062 41.3086V45.1284C18.2689 44.909 17.5423 44.6497 16.8284 44.3478C14.3287 43.2904 12.0829 41.776 10.1533 39.8464C8.22383 37.9169 6.70928 35.671 5.65205 33.1712C4.5585 30.5854 4.00391 27.8362 4.00391 25C4.00391 22.1638 4.5585 19.4146 5.65225 16.8286C6.70957 14.3289 8.22402 12.0831 10.1535 10.1535C12.083 8.22393 14.3289 6.70947 16.8286 5.65225C19.4146 4.5585 22.1638 4.00391 25 4.00391C27.8362 4.00391 30.5854 4.5585 33.1715 5.65225C35.6713 6.70957 37.917 8.22402 39.8467 10.1535C41.7762 12.083 43.2906 14.3289 44.3479 16.8286C45.4414 19.4146 45.9961 22.1638 45.9961 25C45.9961 27.8362 45.4414 30.5854 44.3478 33.1714C43.2905 35.671 41.7759 37.917 39.8464 39.8464Z" fill="white"/>
</svg>
