<svg  width="170" height="152" viewBox="0 0 170 152" fill="none" xmlns="http://www.w3.org/2000/svg">
<path d="M85 45.358C129.264 45.358 165.147 59.0768 165.147 76C165.147 92.9232 129.264 106.642 85 106.642C40.7359 106.642 4.85272 92.9232 4.85272 76C4.85272 59.0768 40.7359 45.358 85 45.358ZM111.443 91.321C89.3103 129.792 59.5309 154.122 44.9264 145.659C30.3218 137.197 36.4264 99.1505 58.5588 60.679C80.6913 22.2075 110.471 -2.1218 125.074 6.34057C139.677 14.8029 133.574 52.8495 111.443 91.321ZM111.443 60.679C133.574 99.1505 139.678 137.199 125.074 145.659C110.469 154.12 80.6905 129.792 58.5573 91.321C36.424 52.8495 30.3218 14.8014 44.9264 6.34057C59.5309 -2.12024 89.3095 22.2075 111.443 60.679Z" stroke="#6FCFF0" stroke-width="9" stroke-miterlimit="10"/>
<path d="M99.2432 76.4606C99.2432 84.0921 93.072 90.2788 85.4594 90.2788C77.8469 90.2788 71.6757 84.0921 71.6757 76.4606C71.6757 68.829 77.8469 62.6424 85.4594 62.6424C93.072 62.6424 99.2432 68.829 99.2432 76.4606Z" fill="#6FCFF0"/>
</svg>
