<svg width="60" height="69" viewBox="0 0 60 69" fill="none" xmlns="http://www.w3.org/2000/svg">
<path d="M52.447 13.5495C52.3999 13.2045 52.1002 13.0136 51.8524 12.9926C51.6052 12.9718 46.372 12.5807 46.372 12.5807C46.372 12.5807 42.7376 8.94283 42.3387 8.54017C41.9395 8.13775 41.16 8.26015 40.8574 8.34995C40.8129 8.36318 40.0634 8.59641 38.8235 8.98324C37.6095 5.46093 35.4668 2.22407 31.6973 2.22407C31.5933 2.22407 31.4862 2.22833 31.3791 2.23447C30.307 0.805082 28.9791 0.184082 27.832 0.184082C19.0512 0.184082 14.8561 11.2513 13.5408 16.8752C10.1288 17.9412 7.70485 18.699 7.39524 18.7971C5.49071 19.3994 5.43047 19.4599 5.1804 21.2693C4.99219 22.6391 0.00891113 61.4939 0.00891113 61.4939L38.8397 68.8292L59.8795 64.2402C59.8795 64.2402 52.4937 13.8945 52.4473 13.5495H52.447ZM36.6773 9.65244L33.3916 10.6778C33.3928 10.4443 33.394 10.2146 33.394 9.96342C33.394 7.77432 33.0926 6.01175 32.6091 4.6145C34.5513 4.86025 35.8448 7.08834 36.6773 9.65244ZM30.1997 5.04858C30.7397 6.41275 31.0908 8.37051 31.0908 11.0124C31.0908 11.1475 31.0896 11.2711 31.0884 11.3961C28.9516 12.0634 26.6297 12.7879 24.3026 13.5148C25.6092 8.43053 28.0584 5.97488 30.1997 5.04858V5.04858ZM27.5909 2.55867C27.9698 2.55867 28.3516 2.6884 28.717 2.94196C25.9029 4.27706 22.8865 7.63963 21.6127 14.3546L16.2488 16.0295C17.7408 10.9077 21.2836 2.55867 27.5906 2.55867H27.5909Z" fill="#95BF46"/>
<path d="M51.8524 12.9925C51.6051 12.9717 46.372 12.5807 46.372 12.5807C46.372 12.5807 42.7376 8.94281 42.3387 8.54015C42.1894 8.39034 41.988 8.31354 41.7776 8.28046L38.8416 68.8287L59.8795 64.2402C59.8795 64.2402 52.4934 13.8945 52.447 13.5495C52.3999 13.2045 52.1001 13.0136 51.8524 12.9925" fill="#5E8E3E"/>
<path d="M31.6974 24.7136L29.1031 32.494C29.1031 32.494 26.8301 31.2709 24.0439 31.2709C19.9592 31.2709 19.7536 33.8553 19.7536 34.5066C19.7536 38.0601 28.9411 39.4217 28.9411 47.7451C28.9411 54.2938 24.8215 58.5106 19.2668 58.5106C12.6012 58.5106 9.19244 54.328 9.19244 54.328L10.9772 48.3827C10.9772 48.3827 14.4811 51.4156 17.4378 51.4156C19.3697 51.4156 20.1556 49.882 20.1556 48.7615C20.1556 44.1262 12.6181 43.9194 12.6181 36.3027C12.6181 29.8921 17.1818 23.6885 26.3942 23.6885C29.9438 23.6885 31.6974 24.7136 31.6974 24.7136" fill="white"/>
</svg>
