<svg width="82" height="98" viewBox="0 0 82 98" fill="none" xmlns="http://www.w3.org/2000/svg">
<g clip-path="url(#clip0)">
<path d="M76.7732 12.9521C67.6222 -0.0579994 49.5492 -3.91405 36.482 4.35582L13.5323 18.8859C10.432 20.8234 7.7728 23.3821 5.72464 26.3984C3.67648 29.4148 2.28443 32.8225 1.63747 36.4037C0.542652 42.4362 1.50483 48.659 4.37166 54.087C2.4072 57.0471 1.06735 60.3722 0.433096 63.8612C-0.220651 67.5146 -0.13343 71.2608 0.689644 74.8802C1.51272 78.4997 3.05507 81.9194 5.22625 84.9389C14.3789 97.9503 32.4518 101.805 45.5174 93.5349L68.4671 79.0054C71.5677 77.0682 74.227 74.5095 76.2752 71.493C78.3234 68.4765 79.7153 65.0686 80.3619 61.4873C81.4566 55.4549 80.4951 49.2323 77.6297 43.8037C79.5936 40.8436 80.9327 37.5186 81.5663 34.0298C82.2205 30.3765 82.1336 26.6301 81.3105 23.0107C80.4875 19.3912 78.945 15.9714 76.7735 12.9521" fill="#FF3E00"/>
<path d="M34.2379 86.1767C26.838 88.088 19.024 85.2107 14.6658 78.9705C13.3595 77.1542 12.4315 75.0971 11.9363 72.9197C11.4411 70.7424 11.3886 68.4887 11.782 66.291C11.9153 65.5694 12.0986 64.8578 12.3307 64.1614L12.7631 62.8521L13.939 63.7102C16.6553 65.6927 19.6923 67.1999 22.9193 68.167L23.7723 68.4241L23.6938 69.2701C23.5895 70.4734 23.9174 71.6746 24.6195 72.6607C25.2598 73.5784 26.1682 74.2788 27.222 74.6673C28.2758 75.0558 29.4243 75.1137 30.5123 74.8332C31.0113 74.7007 31.4869 74.4931 31.9226 74.2175L54.8794 59.6855C55.4412 59.3342 55.9231 58.8705 56.2945 58.3239C56.6658 57.7774 56.9185 57.1599 57.0364 56.511C57.1542 55.8486 57.1381 55.1695 56.9889 54.5134C56.8397 53.8572 56.5604 53.2372 56.1674 52.6893C55.5267 51.7714 54.618 51.0708 53.5638 50.6821C52.5097 50.2934 51.3608 50.2352 50.2724 50.5155C49.7742 50.648 49.2993 50.8554 48.8643 51.1306L40.1037 56.6778C38.6633 57.5876 37.0913 58.2733 35.4422 58.7113C28.0427 60.6226 20.2283 57.7453 15.8708 51.5048C14.5644 49.6886 13.6363 47.6315 13.1411 45.4542C12.6458 43.2769 12.5933 41.0232 12.9867 38.8255C13.3758 36.6714 14.2132 34.6216 15.4454 32.8074C16.6776 30.9931 18.2774 29.4542 20.1425 28.2893L43.0974 13.7557C44.5385 12.8445 46.1116 12.1579 47.7621 11.72C55.1616 9.80863 62.976 12.686 67.3335 18.9261C68.6399 20.7424 69.5679 22.7996 70.0632 24.9769C70.5584 27.1542 70.6109 29.4079 70.2176 31.6057C70.0838 32.327 69.9005 33.0384 69.6689 33.7349L69.2365 35.0446L68.0609 34.1877C65.3449 32.2042 62.3077 30.6962 59.0803 29.729L58.227 29.4716L58.3058 28.6259C58.4092 27.4227 58.0814 26.2218 57.3801 25.2354C56.7398 24.3176 55.8313 23.6171 54.7775 23.2286C53.7236 22.8401 52.575 22.7822 51.487 23.0628C50.9881 23.1953 50.5126 23.4029 50.077 23.6785L27.1202 38.2111C26.5584 38.5622 26.0766 39.0257 25.7054 39.5722C25.3342 40.1187 25.0819 40.7361 24.9645 41.385C24.846 42.0474 24.8618 42.7266 25.0108 43.3828C25.1598 44.0391 25.439 44.6592 25.8322 45.207C26.4729 46.1249 27.3816 46.8255 28.4358 47.2142C29.4899 47.603 30.6388 47.6611 31.7272 47.3808C32.226 47.248 32.7015 47.0404 33.1373 46.7651L41.8962 41.2202C43.3361 40.3091 44.9081 39.6226 46.5574 39.1848C53.9569 37.2738 61.7713 40.1511 66.1291 46.3916C67.4354 48.2078 68.3634 50.2648 68.8586 52.4421C69.3538 54.6193 69.4063 56.8728 69.0129 59.0705C68.6236 61.2248 67.7861 63.2747 66.5539 65.0893C65.3218 66.9038 63.7221 68.4431 61.8571 69.6087L38.9022 84.141C37.4611 85.0522 35.888 85.7387 34.2375 86.1767" fill="white"/>
</g>
<defs>
<clipPath id="clip0">
<rect width="82" height="98" fill="white"/>
</clipPath>
</defs>
</svg>
