<svg width="30" height="31" viewBox="0 0 30 31" fill="none" xmlns="http://www.w3.org/2000/svg">
<path d="M8.10913 14.3277L10.6778 12.2728L14.2738 16.8964C18.3258 9.79808 21.5329 6.94099 29.1719 4.05322V5.08067C20.7294 9.5092 18.0762 13.4586 14.7876 21.5199L8.10913 14.3277Z" fill="#6C63FF" stroke="#6C63FF" stroke-linejoin="round"/>
<mask id="path-2-inside-1" fill="white">
<path d="M26.7832 12.0702C27.4642 14.7288 27.2261 17.5396 26.1076 20.0458C24.9891 22.5521 23.0559 24.6063 20.6221 25.8749C18.1884 27.1434 15.3972 27.5516 12.7022 27.0331C10.0071 26.5147 7.56661 25.1 5.77724 23.0191C3.98787 20.9382 2.95482 18.3133 2.84597 15.571C2.73713 12.8286 3.55888 10.1301 5.1777 7.91391C6.79652 5.6977 9.11724 4.09408 11.7627 3.36366C14.4082 2.63323 17.223 2.81893 19.7496 3.89057L18.9626 5.74598C16.8546 4.8519 14.5063 4.69697 12.2991 5.30637C10.092 5.91577 8.15576 7.25368 6.80517 9.10268C5.45458 10.9517 4.76898 13.2031 4.85979 15.491C4.9506 17.779 5.81248 19.9689 7.30537 21.7051C8.79826 23.4412 10.8344 24.6215 13.0829 25.054C15.3314 25.4866 17.6601 25.146 19.6906 24.0877C21.7211 23.0293 23.334 21.3154 24.2672 19.2245C25.2003 17.1335 25.399 14.7884 24.8308 12.5703L26.7832 12.0702Z"/>
</mask>
<path d="M26.7832 12.0702C27.4642 14.7288 27.2261 17.5396 26.1076 20.0458C24.9891 22.5521 23.0559 24.6063 20.6221 25.8749C18.1884 27.1434 15.3972 27.5516 12.7022 27.0331C10.0071 26.5147 7.56661 25.1 5.77724 23.0191C3.98787 20.9382 2.95482 18.3133 2.84597 15.571C2.73713 12.8286 3.55888 10.1301 5.1777 7.91391C6.79652 5.6977 9.11724 4.09408 11.7627 3.36366C14.4082 2.63323 17.223 2.81893 19.7496 3.89057L18.9626 5.74598C16.8546 4.8519 14.5063 4.69697 12.2991 5.30637C10.092 5.91577 8.15576 7.25368 6.80517 9.10268C5.45458 10.9517 4.76898 13.2031 4.85979 15.491C4.9506 17.779 5.81248 19.9689 7.30537 21.7051C8.79826 23.4412 10.8344 24.6215 13.0829 25.054C15.3314 25.4866 17.6601 25.146 19.6906 24.0877C21.7211 23.0293 23.334 21.3154 24.2672 19.2245C25.2003 17.1335 25.399 14.7884 24.8308 12.5703L26.7832 12.0702Z" stroke="#6C63FF" stroke-width="4" mask="url(#path-2-inside-1)"/>
</svg>
